<svg width="356" height="232" viewBox="0 0 356 232" fill="none" xmlns="http://www.w3.org/2000/svg">
<g clip-path="url(#clip0_1_9)">
<mask id="mask0_1_9" style="mask-type:luminance" maskUnits="userSpaceOnUse" x="0" y="0" width="356" height="232">
<path d="M343.435 0.765686H12.5647C5.62541 0.765686 0 6.3911 0 13.3304V218.554C0 225.493 5.62541 231.119 12.5647 231.119H343.435C350.375 231.119 356 225.493 356 218.554V13.3304C356 6.3911 350.375 0.765686 343.435 0.765686Z" fill="white"/>
</mask>
<g mask="url(#mask0_1_9)">
<path d="M343.435 0.765686H12.5647C5.62541 0.765686 0 6.3911 0 13.3304V218.554C0 225.493 5.62541 231.119 12.5647 231.119H343.435C350.375 231.119 356 225.493 356 218.554V13.3304C356 6.3911 350.375 0.765686 343.435 0.765686Z" fill="white"/>
<path d="M487.936 277.327C503.488 248.728 512.923 217.208 515.643 184.767C518.362 152.327 514.306 119.676 503.731 88.8865C493.157 58.0978 476.296 29.8439 454.219 5.91949C432.142 -18.0049 405.331 -37.0771 375.49 -50.0861C345.647 -63.0951 313.427 -69.7565 280.873 -69.6471C248.319 -69.5382 216.143 -62.6606 186.389 -49.452C156.635 -36.2432 129.953 -16.9916 108.037 7.08036C86.1208 31.1523 69.4495 59.5186 59.082 90.3776" stroke="#334FE0" stroke-width="451"/>
<path d="M356 214.367H0V231.12H356V214.367Z" fill="#1F295D"/>
<path d="M281.657 260.436C334.28 260.436 376.94 217.777 376.94 165.154C376.94 112.531 334.28 69.8712 281.657 69.8712C229.034 69.8712 186.375 112.531 186.375 165.154C186.375 217.777 229.034 260.436 281.657 260.436Z" fill="#D9D9D9"/>
<path d="M191.789 207.791C201.47 228.195 217.805 244.697 238.11 254.584C258.414 264.471 281.479 267.154 303.511 262.193C325.543 257.231 345.231 244.92 359.337 227.284C373.443 209.648 381.128 187.736 381.128 165.152" stroke="#334FE0" stroke-width="16"/>
<path d="M184.66 173.715C186.866 198.702 198.628 221.874 217.497 238.401C236.366 254.929 260.885 263.538 285.945 262.435C311.005 261.331 334.671 250.599 352.014 232.476C369.356 214.353 379.036 190.236 379.036 165.152" stroke="#1F295D" stroke-width="8"/>
<path d="M369.043 212.676C376.332 199.272 380.44 184.372 381.049 169.126C381.658 153.881 378.751 138.7 372.555 124.757C366.358 110.815 357.037 98.4847 345.313 88.7203C333.588 78.9565 319.775 72.0208 304.941 68.4493" stroke="#1F295D" stroke-width="16"/>
<path d="M430.904 246.313C443.353 223.421 450.369 197.972 451.409 171.935C452.449 145.897 447.485 119.969 436.902 96.1568C426.319 72.344 410.4 51.2856 390.376 34.6098C370.352 17.934 346.76 6.08808 321.426 -0.0116577" stroke="#1F295D" stroke-width="203"/>
<path d="M367.203 211.674C373.653 199.813 377.565 186.741 378.693 173.287C379.821 159.833 378.138 146.292 373.753 133.523C369.367 120.754 362.374 109.036 353.218 99.1143C344.062 89.1929 332.942 81.2835 320.566 75.8885C308.189 70.494 294.826 67.7319 281.326 67.778C267.824 67.824 254.48 70.6768 242.141 76.1555C229.802 81.6347 218.737 89.6196 209.648 99.6033C200.56 109.587 193.646 121.352 189.348 134.15" stroke="#334FE0" stroke-width="8"/>
</g>
</g>
<defs>
<clipPath id="clip0_1_9">
<rect width="356" height="230.353" fill="white" transform="translate(0 0.765686)"/>
</clipPath>
</defs>
</svg>
